<svg viewBox="0 0 24 24" xmlns="http://www.w3.org/2000/svg"><path d="M19.03 9.37 L22.21 10.02 L22.21 13.98 L19.03 14.63 L18.82 15.11 L20.62 17.82 L17.82 20.62 L15.11 18.82 L14.63 19.03 L13.98 22.21 L10.02 22.21 L9.37 19.03 L8.89 18.82 L6.18 20.62 L3.38 17.82 L5.18 15.11 L4.97 14.63 L1.79 13.98 L1.79 10.02 L4.97 9.37 L5.18 8.89 L3.38 6.18 L6.18 3.38 L8.89 5.18 L9.37 4.97 L10.02 1.79 L13.98 1.79 L14.63 4.97 L15.11 5.18 L17.82 3.38 L20.62 6.18 L18.82 8.89 Z" fill="none" stroke="currentColor" stroke-width="2" stroke-linejoin="round"></path><circle cx="12" cy="12" r="3.1" fill="none" stroke="currentColor" stroke-width="2"></circle></svg>