<svg viewBox="0 0 320 250" xmlns="http://www.w3.org/2000/svg" role="img" aria-label="No data yet">
  <defs>
    <linearGradient id="kiteSail" x1="0" y1="0" x2="1" y2="1">
      <stop offset="0" stop-color="#4f93e8"></stop>
      <stop offset="1" stop-color="#2456b5"></stop>
    </linearGradient>
    <filter id="kiteShadow" x="-30%" y="-20%" width="160%" height="170%">
      <feDropShadow dx="0" dy="9" stdDeviation="9" flood-color="#1e3c82" flood-opacity="0.18"></feDropShadow>
    </filter>
  </defs>
  <ellipse cx="244" cy="74" rx="80" ry="68" fill="#3f86e4" opacity="0.08"></ellipse>
  <g fill="#cfd5e0">
    <circle cx="78" cy="206" r="2.4"></circle>
    <circle cx="124" cy="206" r="2.4"></circle>
    <circle cx="170" cy="206" r="2.4"></circle>
    <circle cx="216" cy="206" r="2.4"></circle>
    <circle cx="262" cy="206" r="2.4"></circle>
  </g>
  <path d="M58 200 C 110 196, 150 150, 196 104" fill="none" stroke="#b4c4dd" stroke-width="4" stroke-linecap="round" stroke-dasharray="0.5 11"></path>
  <circle cx="58" cy="200" r="6" fill="#3f86e4"></circle>
  <circle cx="58" cy="200" r="11" fill="none" stroke="#3f86e4" stroke-width="2" opacity="0.32"></circle>
  <g transform="rotate(-14 244 74)" filter="url(#kiteShadow)">
    <path d="M244 128 C 232 150, 262 162, 246 186" fill="none" stroke="#2456b5" stroke-width="5" stroke-linecap="round"></path>
    <g fill="#3f86e4">
      <g transform="translate(241 150) rotate(150)"><path d="M0 0 L-11 -8 L-11 8 Z"></path><path d="M0 0 L11 -8 L11 8 Z"></path></g>
      <g transform="translate(252 178) rotate(205)"><path d="M0 0 L-9.5 -7 L-9.5 7 Z"></path><path d="M0 0 L9.5 -7 L9.5 7 Z"></path></g>
    </g>
    <polygon points="244,30 296,74 244,128 192,74" fill="url(#kiteSail)"></polygon>
    <g stroke="#1c3f88" stroke-width="3" stroke-linecap="round" opacity="0.45">
      <line x1="244" y1="30" x2="244" y2="128"></line>
      <line x1="192" y1="74" x2="296" y2="74"></line>
    </g>
  </g>
</svg>